<svg xmlns="http://www.w3.org/2000/svg" viewBox="0 0 700 980" role="img" aria-label="Candlestick book cover">
  <defs>
    <linearGradient id="bg" x1="0" y1="0" x2="1" y2="1">
      <stop offset="0%" stop-color="#111916"/>
      <stop offset="55%" stop-color="#1d2521"/>
      <stop offset="100%" stop-color="#0b0d0c"/>
    </linearGradient>
  </defs>
  <rect width="700" height="980" rx="34" fill="url(#bg)"/>
  <circle cx="490" cy="260" r="165" fill="#8f3029" opacity="0.78"/>
  <path d="M90 700 C200 560 330 725 450 570 S600 610 650 505" fill="none" stroke="#e8eee9" stroke-opacity="0.22" stroke-width="3"/>
  <g stroke-linecap="round">
    <line x1="160" y1="392" x2="160" y2="565" stroke="#d9f5ea" stroke-width="7"/>
    <rect x="132" y="430" width="56" height="82" rx="7" fill="#d9f5ea"/>
    <line x1="260" y1="310" x2="260" y2="520" stroke="#e25b50" stroke-width="7"/>
    <rect x="232" y="355" width="56" height="108" rx="7" fill="#e25b50"/>
    <line x1="360" y1="360" x2="360" y2="610" stroke="#d9f5ea" stroke-width="7"/>
    <rect x="332" y="450" width="56" height="92" rx="7" fill="#d9f5ea"/>
    <line x1="460" y1="300" x2="460" y2="555" stroke="#e25b50" stroke-width="7"/>
    <rect x="432" y="340" width="56" height="128" rx="7" fill="#e25b50"/>
  </g>
  <text x="70" y="130" fill="#f8fbf8" font-family="Arial, sans-serif" font-size="34" font-weight="700">日本蜡烛图技术</text>
  <text x="70" y="176" fill="#b8c4be" font-family="Arial, sans-serif" font-size="20">Steve Nison · 学习卡片</text>
  <text x="70" y="815" fill="#f8fbf8" font-family="Arial, sans-serif" font-size="24" font-weight="700">从形态识别到交易验证</text>
  <text x="70" y="856" fill="#b8c4be" font-family="Arial, sans-serif" font-size="18">目录 / 反转形态 / 星线 / 十字线</text>
</svg>
