<svg xmlns="http://www.w3.org/2000/svg" viewBox="0 0 1600 900" role="img" aria-label="Abstract market landscape">
  <defs>
    <radialGradient id="sun" cx="68%" cy="40%" r="34%">
      <stop offset="0%" stop-color="#9b2f25" stop-opacity="0.95"/>
      <stop offset="55%" stop-color="#4f211d" stop-opacity="0.62"/>
      <stop offset="100%" stop-color="#0d1110" stop-opacity="0"/>
    </radialGradient>
    <linearGradient id="sky" x1="0" y1="0" x2="1" y2="1">
      <stop offset="0%" stop-color="#07100e"/>
      <stop offset="52%" stop-color="#111817"/>
      <stop offset="100%" stop-color="#050606"/>
    </linearGradient>
    <linearGradient id="grid" x1="0" y1="0" x2="1" y2="0">
      <stop offset="0%" stop-color="#183f35" stop-opacity="0"/>
      <stop offset="50%" stop-color="#6ee7c7" stop-opacity="0.22"/>
      <stop offset="100%" stop-color="#9b2f25" stop-opacity="0"/>
    </linearGradient>
    <filter id="soft">
      <feGaussianBlur stdDeviation="18"/>
    </filter>
  </defs>
  <rect width="1600" height="900" fill="url(#sky)"/>
  <rect width="1600" height="900" fill="url(#sun)"/>
  <g opacity="0.22" stroke="#d7efe7" stroke-width="1">
    <path d="M100 235 C260 170 360 260 520 205 S785 120 960 195 1210 270 1470 160" fill="none"/>
    <path d="M80 360 C230 330 360 405 525 350 S765 250 940 330 1180 390 1510 300" fill="none"/>
  </g>
  <g opacity="0.38">
    <path d="M0 630 C230 530 390 710 620 580 C820 470 1020 660 1230 545 C1390 460 1510 500 1600 460 L1600 900 L0 900 Z" fill="#060807"/>
    <path d="M0 700 C260 630 460 760 700 650 C880 568 1040 700 1260 618 C1430 555 1530 590 1600 555 L1600 900 L0 900 Z" fill="#0d1512"/>
  </g>
  <g opacity="0.36" stroke="url(#grid)" stroke-width="1">
    <path d="M140 760 H1460"/>
    <path d="M220 710 H1380"/>
    <path d="M330 665 H1270"/>
    <path d="M470 625 H1130"/>
    <path d="M650 590 H950"/>
    <path d="M800 560 V830"/>
    <path d="M650 590 L360 840"/>
    <path d="M950 590 L1240 840"/>
  </g>
  <g opacity="0.58" stroke-linecap="round">
    <line x1="250" y1="250" x2="250" y2="310" stroke="#5ee0be" stroke-width="3"/>
    <rect x="238" y="270" width="24" height="30" rx="3" fill="#5ee0be"/>
    <line x1="310" y1="220" x2="310" y2="295" stroke="#d95a4f" stroke-width="3"/>
    <rect x="298" y="235" width="24" height="42" rx="3" fill="#d95a4f"/>
    <line x1="370" y1="238" x2="370" y2="318" stroke="#5ee0be" stroke-width="3"/>
    <rect x="358" y="266" width="24" height="32" rx="3" fill="#5ee0be"/>
    <line x1="430" y1="205" x2="430" y2="285" stroke="#d95a4f" stroke-width="3"/>
    <rect x="418" y="222" width="24" height="44" rx="3" fill="#d95a4f"/>
  </g>
  <ellipse cx="800" cy="760" rx="230" ry="38" fill="#07100e" opacity="0.7" filter="url(#soft)"/>
  <path d="M790 640 h24 l10 118 h-44z" fill="#050606"/>
  <circle cx="802" cy="612" r="22" fill="#050606"/>
</svg>
